<svg xmlns="http://www.w3.org/2000/svg" xmlns:xlink="http://www.w3.org/1999/xlink" width="80" zoomAndPan="magnify" viewBox="0 0 60 60" height="80" preserveAspectRatio="xMidYMid meet" version="1.0"><defs><clipPath id="f04c9b53da"><path d="M 5 36 L 24 36 L 24 59.699219 L 5 59.699219 Z M 5 36 " clip-rule="nonzero"/></clipPath><clipPath id="8af7ecd901"><path d="M 10 14.699219 L 45 14.699219 L 45 39 L 10 39 Z M 10 14.699219 " clip-rule="nonzero"/></clipPath><clipPath id="724b330e61"><path d="M 25 58 L 60 58 L 60 59.699219 L 25 59.699219 Z M 25 58 " clip-rule="nonzero"/></clipPath></defs><path fill="#222222" d="M 28.414062 25.476562 L 31.285156 20.253906 C 30.554688 20.578125 29.828125 20.941406 29.117188 21.351562 C 26.585938 22.8125 24.511719 24.660156 23.148438 26.515625 L 27.0625 26.320312 C 27.632812 26.292969 28.144531 25.972656 28.414062 25.476562 Z M 28.414062 25.476562 " fill-opacity="1" fill-rule="nonzero"/><g clip-path="url(#f04c9b53da)"><path fill="#222222" d="M 22.617188 44.710938 L 16.699219 38.214844 L 17.066406 36.828125 L 12.808594 39.285156 C 12.808594 39.476562 12.828125 39.660156 12.800781 39.859375 C 12.652344 40.878906 11.761719 41.652344 10.722656 41.652344 C 10.621094 41.652344 10.523438 41.644531 10.421875 41.628906 C 10.066406 41.582031 9.757812 41.417969 9.476562 41.207031 L 7.746094 42.207031 L 9.769531 46.820312 L 5.453125 56.09375 C 4.863281 57.363281 5.421875 58.867188 6.699219 59.453125 C 7.046875 59.613281 7.410156 59.6875 7.769531 59.6875 C 8.730469 59.6875 9.652344 59.144531 10.085938 58.21875 L 14.878906 47.914062 C 15.183594 47.257812 15.191406 46.503906 14.902344 45.839844 L 13.175781 41.894531 L 18.203125 47.417969 L 18.480469 57.023438 C 18.519531 58.398438 19.65625 59.484375 21.027344 59.484375 C 21.054688 59.484375 21.078125 59.484375 21.105469 59.484375 C 22.511719 59.445312 23.621094 58.277344 23.578125 56.878906 L 23.273438 46.339844 C 23.257812 45.734375 23.023438 45.160156 22.617188 44.710938 Z M 22.617188 44.710938 " fill-opacity="1" fill-rule="nonzero"/></g><path fill="#222222" d="M 5.675781 36.910156 C 5.671875 37.15625 5.71875 37.40625 5.789062 37.652344 L 6.324219 37.34375 C 6.109375 37.199219 5.894531 37.054688 5.675781 36.910156 Z M 5.675781 36.910156 " fill-opacity="1" fill-rule="nonzero"/><path fill="#222222" d="M 20.4375 22.035156 C 20.386719 22.039062 20.335938 22.042969 20.285156 22.042969 C 19.417969 22.042969 18.703125 21.394531 18.625 20.53125 C 18.625 20.515625 18.632812 20.5 18.632812 20.480469 L 18.125 20.527344 C 18.128906 20.542969 18.136719 20.558594 18.140625 20.574219 C 18.21875 21.484375 17.542969 22.292969 16.625 22.375 C 16.574219 22.378906 16.527344 22.378906 16.476562 22.378906 C 15.605469 22.378906 14.894531 21.730469 14.816406 20.871094 C 14.816406 20.851562 14.824219 20.835938 14.820312 20.816406 L 12.273438 21.042969 C 12.746094 22.597656 14.023438 23.859375 15.738281 24.203125 C 17.726562 24.605469 19.660156 23.648438 20.617188 21.984375 C 20.554688 21.996094 20.5 22.03125 20.4375 22.035156 Z M 20.4375 22.035156 " fill-opacity="1" fill-rule="nonzero"/><path fill="#222222" d="M 15.199219 19.660156 C 15.484375 19.320312 15.886719 19.113281 16.328125 19.070312 C 16.378906 19.066406 16.429688 19.066406 16.480469 19.066406 C 17.160156 19.066406 17.730469 19.46875 17.992188 20.054688 L 18.6875 19.992188 C 18.855469 19.328125 19.414062 18.800781 20.140625 18.734375 C 20.191406 18.730469 20.238281 18.730469 20.289062 18.730469 C 20.617188 18.730469 20.90625 18.84375 21.164062 19.003906 C 20.867188 17.1875 19.484375 15.652344 17.558594 15.265625 C 15.074219 14.765625 12.652344 16.359375 12.148438 18.828125 C 12.027344 19.421875 12.035156 20.011719 12.140625 20.570312 L 14.875 20.332031 C 14.933594 20.085938 15.03125 19.855469 15.199219 19.660156 Z M 15.199219 19.660156 " fill-opacity="1" fill-rule="nonzero"/><path fill="#222222" d="M 20.394531 21.570312 C 21.054688 21.515625 21.539062 20.9375 21.480469 20.28125 C 21.421875 19.625 20.839844 19.140625 20.183594 19.199219 C 19.523438 19.257812 19.035156 19.835938 19.09375 20.492188 C 19.152344 21.148438 19.734375 21.628906 20.394531 21.570312 Z M 20.394531 21.570312 " fill-opacity="1" fill-rule="nonzero"/><path fill="#222222" d="M 16.371094 19.535156 C 15.710938 19.59375 15.226562 20.171875 15.285156 20.828125 C 15.34375 21.484375 15.925781 21.96875 16.582031 21.910156 C 17.242188 21.851562 17.730469 21.273438 17.671875 20.617188 C 17.613281 19.960938 17.03125 19.476562 16.371094 19.535156 Z M 16.371094 19.535156 " fill-opacity="1" fill-rule="nonzero"/><g clip-path="url(#8af7ecd901)"><path fill="#222222" d="M 27.179688 18.042969 C 24.09375 19.824219 21.570312 22.160156 20.070312 24.621094 C 18.515625 27.175781 18.242188 29.578125 19.296875 31.386719 C 19.316406 31.414062 19.335938 31.441406 19.351562 31.46875 L 17.027344 32.808594 C 16.507812 32.546875 15.867188 32.542969 15.324219 32.855469 L 10.773438 35.480469 C 11.78125 36.382812 12.546875 37.398438 12.761719 38.609375 L 17.191406 36.050781 C 17.734375 35.738281 18.046875 35.183594 18.078125 34.605469 L 20.398438 33.265625 C 20.402344 33.273438 20.40625 33.285156 20.414062 33.292969 C 21.429688 35.035156 23.542969 35.984375 26.382812 35.984375 C 26.492188 35.984375 26.601562 35.980469 26.710938 35.980469 C 29.605469 35.90625 32.898438 34.886719 35.984375 33.105469 C 39.074219 31.320312 41.597656 28.984375 43.097656 26.523438 C 44.652344 23.96875 44.925781 21.566406 43.867188 19.757812 L 42.753906 17.851562 C 41.75 16.136719 39.652344 15.21875 36.875 15.191406 C 36.730469 15.191406 36.605469 15.164062 36.457031 15.167969 C 35.304688 15.195312 34.082031 15.414062 32.84375 15.730469 C 32.699219 15.488281 32.511719 15.265625 32.246094 15.121094 C 31.445312 14.691406 30.460938 14.984375 30.03125 15.769531 L 29.625 16.503906 C 30.285156 16.328125 31.003906 16.164062 31.765625 16.011719 C 30.234375 16.496094 28.683594 17.175781 27.179688 18.042969 Z M 42.269531 19.398438 C 42.5625 20.730469 42.167969 22.351562 41.109375 24.09375 C 39.699219 26.410156 37.300781 28.625 34.359375 30.320312 C 28.996094 33.414062 23.332031 33.933594 20.890625 31.742188 C 20.183594 28.550781 23.445312 23.917969 28.808594 20.824219 C 31.980469 18.992188 35.261719 18.0625 37.914062 18.0625 C 39.746094 18.0625 41.273438 18.507812 42.269531 19.398438 Z M 42.269531 19.398438 " fill-opacity="1" fill-rule="nonzero"/></g><path fill="#222222" d="M 8.628906 39.351562 C 8.59375 39.277344 8.46875 39.0625 8.089844 38.699219 C 7.757812 38.382812 7.335938 38.054688 6.878906 37.730469 L 1.144531 41.039062 C 0.289062 41.53125 0 42.617188 0.496094 43.464844 L 0.570312 43.589844 C 1.066406 44.4375 2.160156 44.726562 3.011719 44.234375 L 9.015625 40.769531 C 8.71875 40.355469 8.578125 39.859375 8.628906 39.351562 Z M 8.628906 39.351562 " fill-opacity="1" fill-rule="nonzero"/><path fill="#222222" d="M 5.773438 36.414062 C 6.738281 37.050781 7.730469 37.710938 8.414062 38.363281 C 9.011719 38.933594 9.113281 39.257812 9.105469 39.335938 C 8.976562 40.222656 9.597656 41.042969 10.488281 41.167969 C 10.566406 41.179688 10.644531 41.183594 10.722656 41.183594 C 11.519531 41.183594 12.21875 40.601562 12.335938 39.792969 C 12.71875 37.121094 9.992188 35.3125 7.589844 33.714844 C 6.875 33.242188 5.847656 32.5625 5.4375 32.144531 C 5.867188 30.769531 6.308594 29.683594 6.738281 28.800781 C 7.375 27.492188 7.988281 26.660156 8.496094 26.144531 L 6.777344 32.601562 C 7.140625 32.859375 7.527344 33.117188 7.839844 33.324219 C 8.664062 33.871094 9.511719 34.445312 10.277344 35.0625 L 15.015625 32.332031 C 15.382812 32.121094 15.796875 32.007812 16.214844 32.007812 C 16.476562 32.007812 16.734375 32.050781 16.984375 32.132812 L 18.53125 31.238281 C 17.644531 29.296875 17.996094 26.859375 19.546875 24.308594 C 19.730469 24.003906 19.976562 23.714844 20.1875 23.417969 L 20.054688 23.425781 C 19.148438 24.253906 17.949219 24.761719 16.652344 24.761719 C 16.316406 24.761719 15.976562 24.726562 15.644531 24.660156 C 14.304688 24.390625 13.203125 23.613281 12.484375 22.574219 L 10.25 22.074219 C 10.234375 22.078125 10.222656 22.097656 10.207031 22.105469 C 10.117188 22.082031 10.042969 22.039062 9.949219 22.03125 C 9.378906 21.988281 7.089844 22.085938 4.792969 25.632812 C 3.894531 27.027344 2.992188 28.933594 2.191406 31.601562 C 1.585938 33.632812 3.621094 34.984375 5.773438 36.414062 Z M 5.773438 36.414062 " fill-opacity="1" fill-rule="nonzero"/><path fill="#222222" d="M 33.851562 28.636719 C 29.316406 31.535156 24.34375 31.945312 22.457031 29.648438 C 22.511719 29.757812 22.566406 29.863281 22.632812 29.964844 C 24.328125 32.582031 29.527344 32.257812 34.242188 29.242188 C 38.957031 26.226562 41.40625 21.660156 39.707031 19.042969 C 39.660156 18.96875 39.609375 18.902344 39.554688 18.832031 C 39.535156 18.808594 39.515625 18.777344 39.492188 18.75 C 39.503906 18.773438 39.503906 18.804688 39.515625 18.828125 C 40.761719 21.488281 38.34375 25.761719 33.851562 28.636719 Z M 33.851562 28.636719 " fill-opacity="1" fill-rule="nonzero"/><path fill="#222222" d="M 41.890625 57.308594 L 57.039062 57.308594 L 57.039062 48.160156 L 58.683594 48.160156 C 59.097656 48.160156 59.472656 47.914062 59.628906 47.535156 C 59.789062 47.15625 59.699219 46.71875 59.40625 46.425781 L 50.574219 37.648438 C 50.382812 37.460938 50.121094 37.351562 49.851562 37.351562 L 35.46875 37.351562 C 35.191406 37.351562 34.9375 37.464844 34.75 37.652344 L 34.746094 37.652344 L 25.914062 46.425781 L 27.359375 47.863281 L 28.796875 46.4375 L 28.796875 57.308594 Z M 42.503906 46.796875 L 43.582031 47.863281 C 43.769531 48.054688 44.035156 48.160156 44.304688 48.160156 L 56.015625 48.160156 L 56.015625 56.292969 L 52.128906 56.292969 L 52.128906 51.683594 L 48.160156 51.683594 L 48.160156 56.292969 L 42.503906 56.292969 Z M 29.820312 45.421875 L 35.46875 39.804688 L 41.480469 45.777344 L 41.480469 56.292969 L 29.820312 56.292969 Z M 29.820312 45.421875 " fill-opacity="1" fill-rule="nonzero"/><path fill="#222222" d="M 32.441406 50.617188 L 34.617188 50.617188 L 34.617188 52.78125 L 32.441406 52.78125 Z M 32.441406 50.617188 " fill-opacity="1" fill-rule="nonzero"/><path fill="#222222" d="M 35.273438 47.804688 L 37.449219 47.804688 L 37.449219 49.96875 L 35.273438 49.96875 Z M 35.273438 47.804688 " fill-opacity="1" fill-rule="nonzero"/><path fill="#222222" d="M 35.273438 50.617188 L 37.449219 50.617188 L 37.449219 52.78125 L 35.273438 52.78125 Z M 35.273438 50.617188 " fill-opacity="1" fill-rule="nonzero"/><path fill="#222222" d="M 32.441406 47.804688 L 34.617188 47.804688 L 34.617188 49.96875 L 32.441406 49.96875 Z M 32.441406 47.804688 " fill-opacity="1" fill-rule="nonzero"/><g clip-path="url(#724b330e61)"><path fill="#222222" d="M 25.746094 58.078125 L 59.976562 58.078125 L 59.976562 59.015625 L 25.746094 59.015625 Z M 25.746094 58.078125 " fill-opacity="1" fill-rule="nonzero"/></g></svg>